<svg width="125" height="480" viewBox="0 0 125 480" fill="none" xmlns="http://www.w3.org/2000/svg">
<path d="M110.164 446.831C109.265 451.465 112.516 454.37 112.516 454.37C112.516 454.37 102.624 465.16 91.0041 465.99C79.3837 466.89 72.3976 461.079 72.3976 461.079C72.3976 461.079 86.3698 454.093 88.3757 448.283C90.3816 442.473 110.233 446.831 110.233 446.831H110.164Z" fill="#F0BB8F"/>
<path d="M112.515 454.367C115.351 456.166 113.967 468.547 113.967 468.547C113.967 468.547 85.1237 481.966 70.1832 479.752C55.2427 477.539 54.2742 470.138 58.8394 467.164C63.4046 464.189 75.44 459.347 75.44 459.347L80.0743 453.537C80.0743 453.537 82.7028 453.191 85.4004 455.612C88.098 457.964 84.7778 461.837 84.7778 461.837C84.7778 461.837 91.0723 462.183 97.8509 460.592C104.629 459.002 112.515 454.298 112.515 454.298V454.367Z" fill="#2D7EC9"/>
<path d="M55.5915 436.239C54.7615 440.666 57.8049 443.433 57.8049 443.433C57.8049 443.433 48.4671 453.601 37.4692 454.431C26.4713 455.261 19.831 449.727 19.831 449.727C19.831 449.727 33.0423 443.156 34.9791 437.623C36.9158 432.089 55.5915 436.239 55.5915 436.239Z" fill="#F0BB8F"/>
<path d="M57.8111 443.44C60.5087 445.1 59.1944 456.858 59.1944 456.858C59.1944 456.858 31.8726 469.585 17.7621 467.51C3.65163 465.435 2.68324 458.449 7.0409 455.613C11.3294 452.777 22.7423 448.212 22.7423 448.212L27.1 442.748C27.1 442.748 29.5901 442.471 32.1493 444.685C34.7086 446.967 31.596 450.564 31.596 450.564C31.596 450.564 37.5445 450.91 43.9772 449.388C50.41 447.866 57.8802 443.44 57.8802 443.44H57.8111Z" fill="#2D7EC9"/>
<path d="M107.96 334.152C102.841 316.86 101.942 261.456 101.458 242.296C100.974 223.205 100.42 216.426 98.622 206.743L52.7629 188.275L17.9016 213.66C17.9016 213.66 16.8641 258.62 17.2099 269.756C17.4866 280.892 17.625 333.046 21.0143 342.66C24.3344 352.275 24.3344 357.462 23.9885 368.944C23.6427 379.32 25.4411 426.286 25.7869 434.932C25.7869 435.831 26.3403 436.592 27.1011 436.938C38.6524 442.54 53.1779 439.981 57.8814 438.874C58.8498 438.667 59.5414 437.906 59.6106 436.938C60.994 425.871 63.2074 386.375 63.5532 374.132C63.8991 361.197 59.8181 355.249 57.2589 346.395C55.5297 340.378 57.9506 291.821 58.0889 267.888C62.9308 294.518 72.8911 349.231 74.2745 353.381C76.1421 358.915 79.1163 366.316 80.5689 388.173C81.8831 407.541 82.9206 440.258 83.1281 447.451C83.1281 448.351 83.6815 449.181 84.4424 449.526C92.881 453.192 107.199 450.426 112.11 449.319C113.148 449.111 113.839 448.212 113.908 447.175C114.254 440.396 115.638 414.527 116.675 390.179C117.92 361.82 113.009 351.375 107.891 334.083L107.96 334.152Z" fill="#63CDF6"/>
<g opacity="0.5">
<path d="M43.1427 334.145C46.8086 345.213 46.947 440.389 46.947 440.389C51.7197 440.182 55.7315 439.421 57.8065 438.937C58.7749 438.729 59.4666 437.968 59.5358 437C60.9192 425.933 63.1326 386.437 63.4784 374.194C63.8243 361.26 59.7432 355.311 57.184 346.458C55.4548 340.44 57.8757 291.883 58.014 267.951L57.0457 211.924L44.8027 216.558C44.8027 216.558 39.3384 323.148 43.0043 334.215L43.1427 334.145Z" fill="#12AAE1"/>
</g>
<g opacity="0.5">
<path d="M94.9604 334.15C102.016 353.586 102.569 434.86 100.701 451.184C105.543 450.769 109.901 449.939 112.184 449.386C113.221 449.178 113.913 448.279 113.982 447.241C114.328 440.463 115.711 414.594 116.749 390.246C117.994 361.887 113.083 351.442 107.964 334.15C102.846 316.858 101.947 261.453 101.462 242.293C100.978 223.203 100.01 222.234 99.9406 211.721L60.8601 190.347C54.289 191.592 48.6863 192.492 44.882 192.63L40.2477 193.114L28.2122 209.784C48.8246 220.782 81.0575 215.041 81.0575 215.041C81.0575 215.041 87.421 313.33 94.9604 334.15Z" fill="#12AAE1"/>
</g>
<path d="M30.5558 30.4292C25.9214 62.662 28.8957 89.7763 28.8957 89.7763L72.2648 85.6953L58.2926 30.4292H30.4866H30.5558Z" fill="#343754"/>
<path d="M48.9485 77.1231C45.4901 77.6073 36.2906 78.8524 30.6879 81.0658C25.016 83.2792 20.105 88.951 15.194 104.722C12.2889 113.921 10.0755 122.913 8.76125 128.792C7.79289 132.943 3.08939 158.466 3.08939 158.466L58.148 160.264V86.9451L49.0177 77.054L48.9485 77.1231Z" fill="#CE4F37"/>
<path d="M48.9597 77.1206C45.5012 77.6048 36.3017 78.8498 30.699 81.0632C25.5114 83.1383 20.9462 88.1877 16.381 101.191L16.9344 102.021C21.8454 93.7904 28.7623 88.2568 32.4975 86.7351C36.1634 85.2134 47.853 82.7925 47.853 82.7925L50.8965 79.1265L49.0289 77.1206H48.9597Z" fill="#B8402D"/>
<path d="M49.2276 68.7448C50.6801 72.2032 48.9509 78.3593 47.4983 80.5727C46.0458 82.7861 47.0141 90.948 56.6286 92.6773C66.2432 94.4065 72.6759 90.9481 75.8577 87.0054C79.0395 83.0628 75.8577 56.6402 75.8577 56.6402L67.2116 51.3833L49.2276 68.7448Z" fill="#F0BB8F"/>
<path d="M22.1139 133.212C20.938 123.045 28.4774 104.991 28.4774 104.991C28.4774 104.991 25.0881 126.157 28.4774 134.181L22.1139 133.212Z" fill="#B8402D"/>
<g opacity="0.5">
<path d="M77.1892 73.1122C77.0508 68.962 76.705 64.7427 76.3592 61.6301C72.9007 59.6934 69.3039 58.3792 69.3039 58.3792C69.3039 58.3792 64.5312 58.4483 59.5511 58.725L49.1757 68.6853C49.9366 70.4146 49.8674 72.7663 49.4524 74.9797C49.5907 74.9797 65.7071 78.2307 77.1892 73.043V73.1122Z" fill="#E8AB79"/>
</g>
<path d="M72.7531 45.7201C75.7274 53.1903 71.7847 61.1448 64.7986 66.125C57.8126 71.1051 49.8581 74.5636 45.3621 70.1368C40.8661 65.6408 35.2634 58.0322 35.2634 53.052C35.2634 48.0718 29.4533 47.726 30.9058 37.2123C32.4275 26.7677 39.3444 19.7816 43.3562 18.7441C47.368 17.7757 71.2314 28.7045 71.2314 28.7045L72.7531 45.6509V45.7201Z" fill="#F0BB8F"/>
<path d="M41.0675 19.9192C41.4825 22.2018 38.6466 30.2254 33.9431 35.8973C29.2396 41.5691 34.1506 47.7252 30.6921 53.3971C27.2336 59.0689 36.8482 76.5687 30.6921 83.2781C24.536 89.9184 18.6567 90.1951 16.9275 102.023C16.9275 102.023 11.7398 90.8867 15.4749 82.5173C19.21 74.1478 23.3602 69.6518 19.6942 62.0432C15.9591 54.3654 14.9907 42.0533 19.2101 37.6265C23.4294 33.1997 27.9945 22.8243 27.6487 16.6682C27.3029 10.5122 40.1683 -3.32164 47.5694 1.86605L41.1367 19.9884L41.0675 19.9192Z" fill="#444869"/>
<path d="M97.3698 139.583C92.8047 156.115 93.1505 165.107 96.4015 175.62C99.1682 184.681 100.759 206.47 101.52 212.557C101.728 214.355 100.897 216.015 99.3066 216.845C94.3956 219.612 81.5993 224.8 56.0067 224.8C28.8924 224.8 20.3846 217.053 17.9637 213.663C17.3412 212.833 17.1337 211.727 17.272 210.689C17.9637 205.847 20.1771 177.834 20.7305 171.608C21.353 164.207 32.2125 114.336 32.2125 114.336L48.6056 87.9138L84.8502 72.2124L99.6524 80.0977L97.439 139.583H97.3698Z" fill="#CE4F37"/>
<path d="M45.258 150.468C47.75 134.627 39.3551 129.378 35.9667 128.681C32.5631 128.053 28.4746 130.008 26.4439 131.734C26.6211 145.446 37.0028 145.865 37.0028 145.865L45.258 150.468Z" fill="#F0BB8F"/>
<path d="M17.7602 163.337C15.2074 164.812 9.04725 167.04 5.75046 164.894C2.45368 162.747 3.15048 154.218 4.15409 152.547C5.08822 150.853 26.4401 131.73 26.4401 131.73L38.7542 136.992L17.7602 163.337Z" fill="#F0BB8F"/>
<path d="M101.45 212.55C100.689 206.463 99.1673 184.675 96.3314 175.614C93.0804 165.1 92.8037 156.108 97.2997 139.577C94.1871 129.755 91.6279 109.004 91.6279 109.004C91.6279 109.004 82.705 146.909 83.9501 158.529C85.126 170.149 86.4402 221.335 86.4402 221.542C92.7346 219.951 96.8847 218.153 99.2365 216.839C100.827 216.009 101.657 214.279 101.45 212.55Z" fill="#B8402D"/>
<path d="M43.5616 170.233L60.1012 170.948C61.0518 171.009 61.893 170.076 61.6819 169.175L56.0597 145.44C55.3832 142.571 53.5802 140.997 50.5527 140.804L38.6551 140.034C36.9636 139.908 35.5699 141.102 36.0341 142.779L42.2613 169.156C42.4034 169.754 42.9333 170.192 43.5616 170.233Z" fill="#63CDF6"/>
<path d="M37.6329 141.034L49.8136 141.817C52.5851 141.994 53.8904 143.278 54.5105 145.914L60.5113 171.32L43.6063 170.235C42.9685 170.194 42.4333 169.75 42.2932 169.146L35.963 142.258C35.7902 141.471 36.8703 140.984 37.6362 141.034L37.6329 141.034Z" fill="#00ABE1"/>
<path d="M40.9426 148.644L44.4148 148.893C44.8501 148.926 45.1878 148.594 45.0863 148.238L44.0931 144.797C43.871 144.025 43.0754 143.452 42.1311 143.384L38.6588 143.135C38.2236 143.102 37.8858 143.434 37.9873 143.79L38.9805 147.231C39.2026 148.003 39.9983 148.577 40.9426 148.644Z" fill="#2D7EC9"/>
<path d="M92.0393 160C87.1895 160.151 76.6357 163.989 73.1521 164.292C69.6685 164.519 65.0237 161.488 62.7013 158.456C59.969 154.894 56.8952 154.666 56.8952 154.666L58.8761 161.26C58.8761 161.26 57.4417 161.26 51.9089 161.26C46.3761 161.26 42.4143 156.258 41.5947 157.395C40.775 158.532 42.4143 166.187 43.4389 167.93C44.4635 169.597 50.2012 171.341 52.592 172.098C54.9144 172.856 63.316 171.871 66.3898 172.098C69.4636 172.326 87.4281 177.176 96.0347 178.086C104.641 178.995 103.139 166.414 103.139 166.414L95.2392 160.533L92.0393 160Z" fill="#F0BB8F"/>
<path d="M99.5913 80.0916C110.451 84.5184 113.909 89.2219 117.368 99.8739C120.826 110.457 123.316 147.255 124.008 157.353C124.769 167.452 124.008 172.156 121.795 173.124C119.581 174.092 108.649 179.358 93.6393 178.666C93.6393 178.666 99.6679 162.974 91.5059 160C91.5059 160 100.314 158.498 103.773 159.466C103.773 159.466 98.4845 145.318 96.0636 134.943L99.6604 80.0916H99.5913Z" fill="#CE4F37"/>
<path d="M41.0668 19.9164C40.0984 27.2484 59.0508 33.7503 66.4519 38.5229C72.6771 42.5348 64.9993 62.0405 73.7838 67.7123C82.5683 73.3842 67.9736 81.062 73.7838 90.6765C79.594 100.291 71.9162 108.937 71.9162 108.937C71.9162 108.937 85.2659 104.51 85.4734 96.3483C85.7501 88.1864 88.6552 75.5976 99.5147 80.0244C99.5147 80.0244 102.212 66.1906 96.8171 61.0029C91.3528 55.8152 88.171 42.7423 91.1453 38.7996C94.1195 34.857 88.171 16.1121 81.0466 16.5963C73.9221 17.0805 69.7028 -6.57534 47.4995 1.79413L41.0668 19.9164Z" fill="#444869"/>
<path d="M118.601 104.991C118.601 104.991 121.229 163.578 120.053 166.414C118.878 169.319 102.502 176.166 95.2392 173.123C95.1009 175.751 93.6393 178.666 93.6393 178.666C108.718 179.427 119.569 174.161 121.783 173.123C123.996 172.155 124.757 167.451 123.996 157.352C123.374 148.499 121.368 119.309 118.601 104.991Z" fill="#B8402D"/>
<g opacity="0.5">
<path d="M33.8903 35.8903C33.8903 35.8903 34.4436 35.1986 34.6511 34.8528C34.3745 35.1295 34.167 35.4061 33.8903 35.8903Z" fill="#8A3F24"/>
</g>
<g opacity="0.5">
<path d="M91.1452 38.8682C84.0208 42.8109 93.2203 63.7 81.5998 62.1091C66.6593 60.034 72.4695 48.2752 68.3194 41.22C70.7403 47.9294 66.2443 62.8699 73.7837 67.7118C82.5682 73.3836 67.9735 81.0614 73.7837 90.6759C79.594 100.29 71.9162 108.937 71.9162 108.937C71.9162 108.937 85.2658 104.51 85.4734 96.3478C85.75 88.1858 88.6551 75.5971 99.5147 80.0239C99.5147 80.0239 102.212 66.1901 96.8171 61.0024C91.3527 55.8147 88.1709 42.7417 91.1452 38.7991V38.8682Z" fill="#2F324F"/>
</g>
<g opacity="0.5">
<path d="M29.9268 56.5096C26.1225 69.2367 16.8539 58.5846 16.3697 47.5176C16.3697 52.4286 17.5455 57.9621 19.5515 62.1123C23.2866 69.79 19.0673 74.2169 15.3322 82.5863C11.597 90.9558 16.7847 102.092 16.7847 102.092C18.514 90.2641 24.4625 89.9874 30.5494 83.3472C35.8062 77.6061 29.5118 63.9107 29.7885 56.5787L29.9268 56.5096Z" fill="#393D5D"/>
</g>
</svg>
